<?xml version="1.0" encoding="utf-8"?>
<!-- Generator: Adobe Illustrator 25.0.1, SVG Export Plug-In . SVG Version: 6.00 Build 0)  -->
<svg version="1.1" id="Lag_1" xmlns="http://www.w3.org/2000/svg" xmlns:xlink="http://www.w3.org/1999/xlink" x="0px" y="0px"
	 viewBox="0 0 98 135" style="enable-background:new 0 0 98 135;" xml:space="preserve">
<style type="text/css">
	.st0{fill:#D1091D;}
</style>
<g>
	<g>
		<g>
			<path class="st0" d="M88.7,86.1c0,9.4-3.3,18-8.7,24.7l6,6c7-8.3,11.2-19.1,11.2-30.8c0-11.7-4.2-22.4-11.2-30.8l-6,6
				C85.4,68.2,88.7,76.8,88.7,86.1z"/>
			<path class="st0" d="M9.7,86.1c0-9.4,3.3-18,8.7-24.7l-6-6c-7,8.3-11.2,19.1-11.2,30.8c0,11.7,4.2,22.4,11.2,30.8l6-6
				C13,104.1,9.7,95.5,9.7,86.1z"/>
			<path class="st0" d="M73.9,116.9c-6.8,5.4-15.4,8.7-24.7,8.7s-18-3.3-24.7-8.7l-6,6c8.3,7,19.1,11.2,30.8,11.2
				s22.4-4.2,30.8-11.2L73.9,116.9z"/>
		</g>
		<g>
			<rect x="53.4" y="90.4" class="st0" width="18.3" height="18.3"/>
			<rect x="26.7" y="90.4" class="st0" width="18.3" height="18.3"/>
			<rect x="53.4" y="63.6" class="st0" width="18.3" height="18.3"/>
			<rect x="26.7" y="63.6" class="st0" width="18.3" height="18.3"/>
		</g>
	</g>
	<g>
		<path class="st0" d="M70,26.5c1.3,0,2.1,0.7,2.1,1.6c0,0.5-0.2,1.1-0.7,1.7l-8.4,9.9h6.2l5.7-6.8c1.5-1.7,2.2-3.5,2.2-5.2
			c0-3.3-2.9-5.9-6.9-5.9h-0.9v4.8H70z"/>
		<path class="st0" d="M28.4,26.5h0.7v-4.8h-0.9c-4.1,0-6.9,2.6-6.9,5.9c0,1.7,0.7,3.5,2.2,5.2l5.7,6.8h6.2L27,29.7
			c-0.5-0.6-0.7-1.2-0.7-1.7C26.3,27.1,27.1,26.5,28.4,26.5z"/>
		<path class="st0" d="M38.2,26.5h5.4v-4.8h-5.2c-4.5,0-7.3,2.6-7.3,5.9c0,1.7,0.7,3.5,2.2,5.2l5.7,6.8h6.3l-8.4-9.9
			c-0.5-0.6-0.7-1.2-0.7-1.7C36.1,27.1,36.9,26.5,38.2,26.5z"/>
		<path class="st0" d="M60.2,26.5c1.3,0,2.1,0.7,2.1,1.6c0,0.5-0.2,1.1-0.7,1.7l-8.4,9.9h6.3l5.7-6.8c1.5-1.7,2.2-3.5,2.2-5.2
			c0-3.3-2.9-5.9-7.3-5.9h-5.2v4.8H60.2z"/>
		<rect x="46.8" y="21.7" class="st0" width="4.8" height="17.9"/>
		<rect x="30.8" y="42.8" class="st0" width="36.7" height="8.5"/>
		<circle class="st0" cx="49.2" cy="15.1" r="4.5"/>
	</g>
	<polygon class="st0" points="48,3.6 45,3.6 45,5.9 48,5.9 48,8.6 50.4,8.6 50.4,5.9 53.3,5.9 53.3,3.6 50.4,3.6 50.4,0.9 48,0.9 	
		"/>
</g>
</svg>
